<?xml version="1.0" encoding="utf-8"?>
<!-- Generator: Adobe Illustrator 25.0.1, SVG Export Plug-In . SVG Version: 6.00 Build 0)  -->
<svg version="1.1" id="svg_x5F_user" xmlns="http://www.w3.org/2000/svg" xmlns:xlink="http://www.w3.org/1999/xlink" x="0px"
	 y="0px" viewBox="0 0 27.2 26" style="enable-background:new 0 0 27.2 26;" xml:space="preserve">
<style type="text/css">
	.st0{clip-path:url(#SVGID_2_);fill:#FFFFFF;}
</style>
<g>
	<g>
		<defs>
			<rect id="SVGID_1_" y="0" width="27.2" height="26"/>
		</defs>
		<clipPath id="SVGID_2_">
			<use xlink:href="#SVGID_1_"  style="overflow:visible;"/>
		</clipPath>
		<path class="st0" d="M13.6,0.9C9.9,0.9,7,3.8,7,7.3s3,6.3,6.6,6.3s6.6-2.8,6.6-6.3S17.2,0.9,13.6,0.9 M2.7,26
			C1.2,26,0,24.9,0,23.4v-2c0-1.7,0.7-3.2,2-4.3c1.2-1,3.3-2.3,6.7-3l1.3-0.3L9,13c-1.9-1.4-3-3.5-3-5.8C6,3.3,9.4,0,13.6,0
			s7.6,3.3,7.6,7.3s-3.4,7.3-7.6,7.3c-2.1,0-7.4,0.3-10.9,3.3C1.6,18.7,1,20.1,1,21.5v2c0,0.9,0.8,1.7,1.7,1.7h21.8
			c1,0,1.7-0.7,1.7-1.7v-2c0-1.4-0.6-2.7-1.7-3.6c-0.8-0.7-1.8-1.3-3-1.8c-0.2-0.1-0.4-0.4-0.2-0.6c0.1-0.2,0.2-0.3,0.4-0.3
			c0.1,0,0.1,0,0.2,0c1.3,0.5,2.3,1.2,3.2,1.9c1.3,1.1,2,2.7,2,4.3v2c0,1.4-1.2,2.6-2.7,2.6C24.4,26,2.7,26,2.7,26z"/>
	</g>
</g>
</svg>
