<?xml version="1.0" encoding="utf-8"?>
<!-- Generator: $$$/GeneralStr/196=Adobe Illustrator 27.6.0, SVG Export Plug-In . SVG Version: 6.00 Build 0)  -->
<svg version="1.1" id="Calque_1" xmlns="http://www.w3.org/2000/svg" xmlns:xlink="http://www.w3.org/1999/xlink" x="0px" y="0px"
	 viewBox="0 0 19.1 34.4" style="enable-background:new 0 0 19.1 34.4;" xml:space="preserve">
<style type="text/css">
	.st0{fill:#324951;}
</style>
<g>
	<path class="st0" d="M15.2,6.2c1.2,0,2.3,0,3.4,0h0.5V0.3c-0.6-0.1-1.3-0.2-1.9-0.2C16,0,14.9,0,13.7,0c-1.8,0-3.5,0.4-4.9,1.5
		C7.1,2.7,6.2,4.4,5.9,6.4C5.8,7.2,5.7,8.1,5.7,8.9c0,1.3,0,2.6,0,3.9v0.5H0v6.6h5.6v14.5h6.7V20.1h5.5c0.3-2.2,0.6-4.4,0.9-6.6
		h-1.2h-5.2c0,0,0.1-3.3,0.1-4.7C12.5,6.9,13.6,6.3,15.2,6.2z"/>
</g>
</svg>
