<?xml version="1.0" encoding="utf-8"?>
<!-- Generator: $$$/GeneralStr/196=Adobe Illustrator 27.6.0, SVG Export Plug-In . SVG Version: 6.00 Build 0)  -->
<svg version="1.1" id="Calque_1" xmlns="http://www.w3.org/2000/svg" xmlns:xlink="http://www.w3.org/1999/xlink" x="0px" y="0px"
	 viewBox="0 0 25.8 26" style="enable-background:new 0 0 25.8 26;" xml:space="preserve">
<style type="text/css">
	.st0{fill:#324951;}
</style>
<g>
	<path class="st0" d="M12.9,6.4c-3.6,0-6.6,2.9-6.6,6.6c0,3.6,2.9,6.6,6.6,6.6s6.6-3,6.6-6.6S16.6,6.4,12.9,6.4z M12.9,17.3
		c-2.4,0-4.3-1.9-4.3-4.3s1.9-4.3,4.3-4.3c2.4,0,4.3,2,4.3,4.3C17.2,15.4,15.3,17.3,12.9,17.3z"/>
	<path class="st0" d="M19.9,4.6c-0.9-0.1-1.6,0.6-1.6,1.5c-0.1,0.9,0.6,1.6,1.5,1.6c0.8,0,1.5-0.7,1.6-1.5
		C21.5,5.3,20.8,4.6,19.9,4.6z"/>
	<path class="st0" d="M25.4,20.5c0.6-2.3,0.4-11.9,0.2-14c-0.2-1.7-0.8-3.2-2.1-4.4s-2.9-1.8-4.7-1.9C15.7,0,8.5-0.1,6,0.4
		c-2.9,0.4-4.8,2.1-5.6,5c-0.6,2.2-0.5,12.3-0.1,14.5c0.4,3,2.2,4.9,5.1,5.7c2,0.5,12,0.5,14.3,0.1C22.7,25.2,24.6,23.4,25.4,20.5z
		 M5.8,23.2c-1.8-0.6-2.9-1.8-3.2-3.7c-0.3-1.8-0.4-10.7,0-13.1c0.3-2.2,1.8-3.6,4.1-3.9C9,2.3,17.2,2.3,19.4,2.6
		C21.6,3,23,4.5,23.3,6.8c0.2,2.1,0.3,10.4-0.1,12.7c-0.3,2.3-1.8,3.7-4.1,3.9C17.1,23.6,7.7,23.7,5.8,23.2z"/>
</g>
</svg>
