<?xml version="1.0" encoding="utf-8"?>
<!-- Generator: Adobe Illustrator 25.1.0, SVG Export Plug-In . SVG Version: 6.00 Build 0)  -->
<svg version="1.1" id="Calque_1" xmlns="http://www.w3.org/2000/svg" xmlns:xlink="http://www.w3.org/1999/xlink" x="0px" y="0px"
	 viewBox="0 0 61.2 42.6" style="enable-background:new 0 0 61.2 42.6;" xml:space="preserve">
<style type="text/css">
	.st0{fill:#324951;}
</style>
<g>
	<path class="st0" d="M36.2,14.5c-3.6,0-6.6,2.9-6.6,6.6c0,3.6,2.9,6.6,6.6,6.6s6.6-3,6.6-6.6C42.8,17.5,39.9,14.5,36.2,14.5z
		 M36.2,25.4c-2.4,0-4.3-1.9-4.3-4.3c0-2.4,1.9-4.3,4.3-4.3c2.4,0,4.3,2,4.3,4.3C40.5,23.5,38.6,25.4,36.2,25.4z"/>
	<path class="st0" d="M43.2,12.7c-0.9-0.1-1.6,0.6-1.6,1.5c-0.1,0.9,0.6,1.6,1.5,1.6c0.8,0,1.5-0.7,1.6-1.5
		C44.8,13.4,44.1,12.7,43.2,12.7z"/>
	<path class="st0" d="M48.7,28.6c0.6-2.3,0.4-11.9,0.2-14c-0.2-1.7-0.8-3.2-2.1-4.4c-1.3-1.2-2.9-1.8-4.7-1.9
		C39,8.1,31.8,8,29.3,8.5c-2.9,0.4-4.8,2.1-5.6,5c-0.6,2.2-0.5,12.3-0.1,14.5c0.4,3,2.2,4.9,5.1,5.7c2,0.5,12,0.5,14.3,0.1
		C46,33.3,47.9,31.5,48.7,28.6z M29.1,31.3c-1.8-0.6-2.9-1.8-3.2-3.7c-0.3-1.8-0.4-10.7,0-13.1c0.3-2.2,1.8-3.6,4.1-3.9
		c2.3-0.2,10.5-0.2,12.7,0.1c2.2,0.4,3.6,1.9,3.9,4.2c0.2,2.1,0.3,10.4-0.1,12.7c-0.3,2.3-1.8,3.7-4.1,3.9
		C40.4,31.7,31,31.8,29.1,31.3z"/>
</g>
</svg>
