<?xml version="1.0" encoding="utf-8"?>
<!-- Generator: Adobe Illustrator 25.1.0, SVG Export Plug-In . SVG Version: 6.00 Build 0)  -->
<svg version="1.1" id="Calque_1" xmlns="http://www.w3.org/2000/svg" xmlns:xlink="http://www.w3.org/1999/xlink" x="0px" y="0px"
	 viewBox="0 0 133.4 139.7" style="enable-background:new 0 0 133.4 139.7;" xml:space="preserve">
<style type="text/css">
	.st0{clip-path:url(#SVGID_2_);}
	.st1{opacity:0.1;clip-path:url(#SVGID_4_);}
	.st2{clip-path:url(#SVGID_6_);fill:#203743;}
</style>
<g>
	<defs>
		<rect id="SVGID_1_" width="133.4" height="139.7"/>
	</defs>
	<clipPath id="SVGID_2_">
		<use xlink:href="#SVGID_1_"  style="overflow:visible;"/>
	</clipPath>
	<g class="st0">
		<defs>
			<rect id="SVGID_3_" width="133.4" height="139.7"/>
		</defs>
		<clipPath id="SVGID_4_">
			<use xlink:href="#SVGID_3_"  style="overflow:visible;"/>
		</clipPath>
		<g class="st1">
			<g>
				<defs>
					<rect id="SVGID_5_" y="0" width="133.4" height="139.7"/>
				</defs>
				<clipPath id="SVGID_6_">
					<use xlink:href="#SVGID_5_"  style="overflow:visible;"/>
				</clipPath>
				<path class="st2" d="M32.3,30.5H77c7,0,13.7,3.1,18.2,8.5c4.7,5.5,6.7,12.8,5.5,20.1c-1.9,11.6-12.4,20.3-24.5,20.3h-44V30.5z
					 M32.3,114.5c0-6.5,5.2-11.7,11.6-11.7h33.2c24.5,0,45.2-19.4,47.1-44.1c1-13.3-3.4-26-12.6-35.9C102.4,12.7,89.3,7,75.8,7H20.6
					C14.2,7,9,12.3,9,18.7v100.1c0,10.7,8.6,19.6,19.2,19.8l3.9,0.1l0.1-0.1V114.5z"/>
			</g>
		</g>
	</g>
</g>
</svg>
