<?xml version="1.0" encoding="utf-8"?>
<!-- Generator: Adobe Illustrator 25.0.1, SVG Export Plug-In . SVG Version: 6.00 Build 0)  -->
<svg version="1.1" id="Calque_1" xmlns="http://www.w3.org/2000/svg" xmlns:xlink="http://www.w3.org/1999/xlink" x="0px" y="0px"
	 viewBox="0 0 134.7 29.4" style="enable-background:new 0 0 134.7 29.4;" xml:space="preserve">
<style type="text/css">
	.st0{fill:#FFFFFF;}
</style>
<g>
	<g>
		<path class="st0" d="M84.7,2.3c0,1.3-1,2.3-2.3,2.3s-2.3-1-2.3-2.3s1-2.3,2.3-2.3S84.7,1,84.7,2.3"/>
	</g>
	<g>
		<path class="st0" d="M49.7,10.8c-0.8,0.7-1.4,1.7-1.5,2.9h9.3c-0.2-1.2-0.7-2.1-1.5-2.9c-0.8-0.7-1.9-1.1-3.1-1.1
			C51.6,9.8,50.6,10.1,49.7,10.8 M61,16.3H48.2c0.2,1.2,0.8,2.2,1.8,2.9c0.9,0.7,2.1,1.1,3.5,1.1c1.8,0,3.3-0.6,4.4-1.8l2,2.4
			c-0.7,0.9-1.7,1.5-2.8,2c-1.1,0.4-2.4,0.7-3.8,0.7c-1.8,0-3.4-0.4-4.7-1.1c-1.4-0.7-2.4-1.7-3.2-3s-1.1-2.7-1.1-4.3
			c0-1.6,0.4-3,1.1-4.3c0.7-1.3,1.7-2.3,3-3s2.7-1.1,4.3-1.1s3,0.4,4.3,1.1s2.2,1.7,2.9,3s1.1,2.7,1.1,4.4
			C61.1,15.4,61.1,15.8,61,16.3"/>
	</g>
	<g>
		<path class="st0" d="M65.9,22.9c-1.3-0.3-2.3-0.8-3-1.3l1.5-2.9c0.7,0.5,1.6,0.9,2.6,1.2c1,0.3,2,0.4,3,0.4c2.3,0,3.4-0.6,3.4-1.8
			c0-0.6-0.3-1-0.9-1.2s-1.5-0.4-2.8-0.6s-2.4-0.4-3.3-0.7c-0.8-0.3-1.6-0.7-2.2-1.4s-0.9-1.6-0.9-2.8c0-1.5,0.6-2.8,1.9-3.7
			s3-1.4,5.2-1.4c1.1,0,2.2,0.1,3.4,0.4c1.1,0.3,2,0.6,2.8,1L75.2,11c-1.4-0.8-2.9-1.2-4.7-1.2c-1.1,0-2,0.2-2.6,0.5
			S67,11.1,67,11.6c0,0.6,0.3,1,0.9,1.3s1.6,0.5,2.9,0.7s2.4,0.4,3.2,0.7c0.8,0.3,1.6,0.7,2.2,1.3c0.6,0.6,0.9,1.5,0.9,2.7
			c0,1.5-0.7,2.8-2,3.7c-1.3,0.9-3.1,1.4-5.4,1.4C68.5,23.4,67.2,23.2,65.9,22.9"/>
	</g>
</g>
<rect x="80.5" y="6.9" class="st0" width="3.8" height="16.3"/>
<g>
	<g>
		<path class="st0" d="M100.3,17.9c0.9-0.9,1.4-2,1.4-3.4s-0.5-2.5-1.4-3.3c-0.9-0.9-2.1-1.3-3.6-1.3s-2.7,0.4-3.6,1.3
			c-0.9,0.9-1.4,2-1.4,3.3c0,1.4,0.5,2.5,1.4,3.4s2.1,1.3,3.6,1.3C98.2,19.2,99.4,18.8,100.3,17.9 M105.5,6.9v13.8
			c0,5.7-2.9,8.6-8.8,8.6c-1.6,0-3.1-0.2-4.5-0.6s-2.6-1-3.5-1.7l1.7-2.9c0.7,0.6,1.6,1.1,2.7,1.4c1.1,0.4,2.2,0.5,3.3,0.5
			c1.8,0,3.1-0.4,3.9-1.2c0.8-0.8,1.3-2.1,1.3-3.7v-0.9c-0.7,0.7-1.4,1.3-2.4,1.6c-0.9,0.4-2,0.6-3.1,0.6c-1.5,0-2.9-0.3-4.2-1
			c-1.3-0.7-2.2-1.6-3-2.8c-0.7-1.2-1.1-2.6-1.1-4.1s0.4-2.9,1.1-4.1s1.7-2.1,3-2.8s2.7-1,4.2-1c1.2,0,2.3,0.2,3.2,0.6
			c1,0.4,1.8,1,2.4,1.8V6.9H105.5z"/>
	</g>
	<g>
		<path class="st0" d="M124.7,8.5c1.2,1.2,1.9,3,1.9,5.3v9.3h-3.8v-8.9c0-1.4-0.3-2.5-1-3.2s-1.6-1.1-2.9-1.1
			c-1.4,0-2.5,0.4-3.3,1.3c-0.8,0.8-1.2,2.1-1.2,3.7v8.2h-3.8V6.9h3.6V9c0.6-0.8,1.4-1.3,2.4-1.7c1-0.4,2-0.6,3.2-0.6
			C121.8,6.7,123.5,7.3,124.7,8.5"/>
	</g>
	<g>
		<path class="st0" d="M4,10.9h7.7c1.2,0,2.3,0.5,3.1,1.5c0.8,0.9,1.1,2.2,0.9,3.4c-0.3,2-2.1,3.5-4.2,3.5H4V10.9z M4,25.2
			c0-1.1,0.9-2,2-2h5.7c4.2,0,7.7-3.3,8.1-7.5c0.2-2.3-0.6-4.4-2.2-6.1s-3.8-2.7-6.1-2.7H2c-1.1,0-2,0.9-2,2V26
			c0,1.8,1.5,3.3,3.3,3.4H4l0,0V25.2z"/>
	</g>
	<g>
		<path class="st0" d="M129.2,23.2h3.4c1,0,1.9-0.7,2.1-1.6c0.2-1.3-0.7-2.4-2-2.4h-3.5c0,0-0.1,0-0.1,0.1L129.2,23.2
			C129.1,23.1,129.1,23.2,129.2,23.2"/>
	</g>
	<g>
		<path class="st0" d="M32.1,10.2c-1.5,0-2.8,0.5-3.8,1.4s-1.5,2.1-1.5,3.6c0,1.4,0.5,2.6,1.5,3.5s2.2,1.4,3.8,1.4
			c1.5,0,2.8-0.5,3.8-1.4s1.5-2.1,1.5-3.5c0-1.5-0.5-2.6-1.5-3.6C34.9,10.6,33.6,10.2,32.1,10.2 M41.3,0.6v22.5h-3.8v-2.3
			c-0.7,0.8-1.5,1.5-2.6,1.9c-1,0.4-2.2,0.6-3.4,0.6c-1.6,0-3.1-0.3-4.4-1s-2.4-1.7-3.1-2.9c-0.8-1.3-1.1-2.7-1.1-4.3
			c0-1.6,0.4-3.1,1.1-4.4c0.8-1.3,1.8-2.2,3.1-2.9c1.3-0.7,2.8-1,4.4-1c1.2,0,2.3,0.2,3.3,0.6s1.8,1,2.5,1.7V0.6H41.3z"/>
	</g>
</g>
</svg>
