<?xml version="1.0" encoding="utf-8"?>
<!-- Generator: Adobe Illustrator 25.0.1, SVG Export Plug-In . SVG Version: 6.00 Build 0)  -->
<svg version="1.1" id="Calque_1" xmlns="http://www.w3.org/2000/svg" xmlns:xlink="http://www.w3.org/1999/xlink" x="0px" y="0px"
	 viewBox="0 0 16.3 19.2" style="enable-background:new 0 0 16.3 19.2;" xml:space="preserve">
<style type="text/css">
	.st0{clip-path:url(#SVGID_2_);fill:#FFFFFF;}
</style>
<g>
	<defs>
		<rect id="SVGID_1_" width="16.3" height="19.2"/>
	</defs>
	<clipPath id="SVGID_2_">
		<use xlink:href="#SVGID_1_"  style="overflow:visible;"/>
	</clipPath>
	<path class="st0" d="M15.4,13.9c-1.2-0.1-2.4-0.5-3.4-0.9c-0.3-0.1-0.7-0.1-1,0.1L8.6,15C6,13.3,4,10.8,2.9,7.9L5.3,6
		c0.3-0.2,0.4-0.6,0.3-1C5.4,3.9,5.3,2.7,5.4,1.5c0.1-0.5-0.3-1-0.9-1.1L1.2,0c-0.5-0.1-1,0.3-1.1,0.9c-1,9.1,5.6,17.3,14.7,18.4
		c0.5,0.1,1-0.3,1.1-0.9l0.4-3.4C16.3,14.4,15.9,13.9,15.4,13.9"/>
</g>
</svg>
