<?xml version="1.0" encoding="utf-8"?>
<!-- Generator: Adobe Illustrator 25.1.0, SVG Export Plug-In . SVG Version: 6.00 Build 0)  -->
<svg version="1.1" id="Calque_1" xmlns="http://www.w3.org/2000/svg" xmlns:xlink="http://www.w3.org/1999/xlink" x="0px" y="0px"
	 viewBox="0 0 16.3 19.2" style="enable-background:new 0 0 16.3 19.2;" xml:space="preserve">
<style type="text/css">
	.st0{fill:#646464;}
</style>
<g>
	<g>
		<path class="st0" d="M15.4,13.9C14.2,13.8,13,13.4,12,13c-0.3-0.1-0.7-0.1-1,0.1L8.6,15C6,13.3,4,10.8,2.9,7.9L5.3,6
			c0.3-0.2,0.4-0.6,0.3-1C5.4,3.9,5.3,2.7,5.4,1.5c0.1-0.5-0.3-1-0.9-1.1L1.2,0c-0.5-0.1-1,0.3-1.1,0.9c-1,9.1,5.6,17.3,14.7,18.4
			c0.5,0.1,1-0.3,1.1-0.9l0.4-3.4C16.3,14.4,15.9,13.9,15.4,13.9"/>
	</g>
</g>
</svg>
