<?xml version="1.0" encoding="utf-8"?>
<!-- Generator: Adobe Illustrator 25.1.0, SVG Export Plug-In . SVG Version: 6.00 Build 0)  -->
<svg version="1.1" id="Calque_1" xmlns="http://www.w3.org/2000/svg" xmlns:xlink="http://www.w3.org/1999/xlink" x="0px" y="0px"
	 viewBox="0 0 61.2 42.6" style="enable-background:new 0 0 61.2 42.6;" xml:space="preserve">
<style type="text/css">
	.st0{fill:#324951;}
</style>
<path class="st0" d="M38.3,26.8l0.5,0.6c2.2,2.2,6.8,2,9.7-1.6c2.5-3.1,2.7-7.4,2.4-9.6c-0.6-3.9-3.8-7.3-8.8-7.9
	c-4.2-0.5-8.8,1.1-11.3,5c-2.3,3.6-1.8,7.7-0.1,9.8c0.5,0.6,1.1,1.1,1.8,1.4c0.4,0.2,0.7,0,0.8-0.3c0.2-0.5,0.2-1,0.4-1.5
	c0-0.3-0.2-0.5-0.4-0.8c-2-2.5-1-8,3.4-10c3.8-1.8,9.9-0.6,10.2,4.9c0.1,2.8-0.8,6.7-3,8.3c-2.5,1.8-5.3,0-4.7-2.4
	c0.7-2.9,1.7-4.9,1.3-6.4c-0.6-2.4-4-2.2-4.9,0.8c-0.4,1.4-0.3,2.8,0.2,4.1c0.1,0.2,0.1,0.3,0.1,0.4c-2,8.7-2.2,9.3-2.3,10.9
	c-0.1,1.3,0,2.5,0.2,3.7c0,0.1,0,0.3,0.2,0.3s0.2-0.1,0.3-0.2c0.6-0.8,1.2-1.6,1.7-2.5c1.1-1.9,1.2-2.8,2.2-6.8
	C38.3,26.9,38.3,26.9,38.3,26.8z"/>
</svg>
