<?xml version="1.0" encoding="utf-8"?>
<!-- Generator: Adobe Illustrator 25.1.0, SVG Export Plug-In . SVG Version: 6.00 Build 0)  -->
<svg version="1.1" id="Calque_1" xmlns="http://www.w3.org/2000/svg" xmlns:xlink="http://www.w3.org/1999/xlink" x="0px" y="0px"
	 viewBox="0 0 36 32.2" style="enable-background:new 0 0 36 32.2;" xml:space="preserve">
<style type="text/css">
	.st0{fill:#656564;}
</style>
<g>
	<path class="st0" d="M30.4,10.1h-2.2c-0.6,0-1.1,0.4-1.1,0.9s0.5,0.9,1.1,0.9h2.2c0.6,0,1.1-0.4,1.1-0.9S31,10.1,30.4,10.1
		 M24.7,26.2H11.2c-0.6,0-1.1,0.4-1.1,0.9s0.5,0.9,1.1,0.9h13.5c0.6,0,1.1-0.4,1.1-0.9S25.3,26.2,24.7,26.2 M11.2,24.3h13.5
		c0.6,0,1.1-0.4,1.1-0.9s-0.5-0.9-1.1-0.9H11.2c-0.6,0-1.1,0.4-1.1,0.9S10.6,24.3,11.2,24.3 M33.9,19c0,1.6-1.6,3-3.5,3h-1v-2.1h1.4
		c0.6,0,1.1-0.4,1.1-0.9c0-0.5-0.5-0.9-1.1-0.9H4.9c-0.6,0-1.1,0.4-1.1,0.9c0,0.5,0.5,0.9,1.1,0.9h1.6V22H5.6c-1.9,0-3.5-1.3-3.5-3
		v-7.7c0-1.6,1.6-3,3.5-3h24.8c1.9,0,3.5,1.3,3.5,3V19z M27.3,29.8c0,0.3-0.3,0.6-0.7,0.6H9.3c-0.4,0-0.7-0.3-0.7-0.6v-9.9h18.7
		V29.8z M8.6,4.8c0-1.6,1.6-3,3.5-3h11.7c1.9,0,3.5,1.3,3.5,3v1.8H8.6V4.8z M30.4,6.6h-1V4.8c0-2.6-2.5-4.8-5.6-4.8H12.1
		C9,0,6.5,2.1,6.5,4.8v1.8H5.6C2.5,6.6,0,8.7,0,11.4V19c0,2.6,2.5,4.8,5.6,4.8h0.9v6c0,1.3,1.3,2.4,2.8,2.4h17.4
		c1.5,0,2.8-1.1,2.8-2.4v-6h1c3.1,0,5.6-2.1,5.6-4.8v-7.7C36,8.7,33.5,6.6,30.4,6.6"/>
</g>
</svg>
