<?xml version="1.0" encoding="utf-8"?>
<!-- Generator: Adobe Illustrator 25.1.0, SVG Export Plug-In . SVG Version: 6.00 Build 0)  -->
<svg version="1.1" id="Calque_1" xmlns="http://www.w3.org/2000/svg" xmlns:xlink="http://www.w3.org/1999/xlink" x="0px" y="0px"
	 viewBox="0 0 61.2 42.6" style="enable-background:new 0 0 61.2 42.6;" xml:space="preserve">
<style type="text/css">
	.st0{fill:#324951;}
</style>
<path class="st0" d="M44.7,30.3c1.5-1.5,2.6-3.3,3.5-5.3c0.9-1.9,1.5-3.9,1.7-6c0.1-1,0.1-2,0.1-3c0-0.1,0-0.1,0.1-0.2
	c0.8-0.6,1.6-1.4,2.3-2.3c0.2-0.3,0.5-0.7,0.7-1c-1.2,0.5-2.4,0.8-4,0.7c1.4-0.9,2.3-2.1,2.8-3.7l-0.1,0.1c-1.1,0.7-2.4,1.2-3.7,1.5
	c-0.1,0.1-0.2,0-0.3-0.1c-1.6-1.6-3.4-2.3-5.6-1.9c-1.8,0.3-3.3,1.4-4.3,3.1c-0.8,1.3-1.1,2.8-0.9,4.4c0,0.3,0.1,0.5,0.1,0.8
	c-5.3-0.4-9.7-2.7-13.2-7c-0.8,1.6-1.1,3.2-0.7,4.9c0.4,1.8,1.3,3.1,2.6,4.1c-1,0-1.9-0.3-2.8-0.8c0,1.3,0.2,2.5,0.9,3.6
	c1,1.7,2.4,2.7,4.2,3.1c0,0.1-0.1,0.1-0.1,0.1c-1,0.2-1.9,0.3-2.8,0.1c0.6,2.1,2.7,4.6,6,4.7c-0.9,0.7-1.9,1.4-3,1.8
	c-2,0.9-4.2,1.1-6.4,0.9C21.9,33,22,33,22,33c3.2,2.1,6.6,3,10.3,2.9c1.2,0,2.4-0.2,3.6-0.4C39.3,34.6,42.3,33,44.7,30.3z"/>
</svg>
