<?xml version="1.0" encoding="utf-8"?>
<!-- Generator: Adobe Illustrator 25.1.0, SVG Export Plug-In . SVG Version: 6.00 Build 0)  -->
<svg version="1.1" id="Calque_1" xmlns="http://www.w3.org/2000/svg" xmlns:xlink="http://www.w3.org/1999/xlink" x="0px" y="0px"
	 viewBox="0 0 61.2 42.6" style="enable-background:new 0 0 61.2 42.6;" xml:space="preserve">
<style type="text/css">
	.st0{fill:#324951;}
</style>
<path class="st0" d="M43.3,9.7C41.1,8.9,22,8.8,15.9,9.4c-1.2,0.2-2.2,0.7-3,1.6c-2.4,2.7-2,16.4-0.8,19.6c0.5,1.4,1.4,2.3,2.8,2.7
	c3,1,26.7,1,29-0.2c0.8-0.4,1.5-1,1.9-1.9c1.5-3.3,1.5-15.5,0.2-18.9C45.5,11,44.6,10.1,43.3,9.7z M24.6,26.9V15.3
	c3.7,2,7.4,3.9,11.1,5.8C32,23.1,28.3,25,24.6,26.9z"/>
</svg>
