<?xml version="1.0" encoding="utf-8"?>
<!-- Generator: Adobe Illustrator 25.0.1, SVG Export Plug-In . SVG Version: 6.00 Build 0)  -->
<svg version="1.1" id="Capa_1" xmlns="http://www.w3.org/2000/svg" xmlns:xlink="http://www.w3.org/1999/xlink" x="0px" y="0px"
	 viewBox="0 0 512 512" style="enable-background:new 0 0 512 512;" xml:space="preserve">
<style type="text/css">
	.st0{fill:#FFFFFF;}
</style>
<g>
	<g>
		<path class="st0" d="M284.3,256L505.8,34.5c7.7-7.7,8.3-20.2,0.8-28.1c-7.8-8.3-20.8-8.5-28.8-0.5L256,227.7c0,0,0,0-0.1,0
			L34.5,6.2C26.8-1.5,14.3-2,6.4,5.4c-8.3,7.8-8.5,20.8-0.5,28.8L227.7,256c0,0,0,0,0,0.1L6.2,477.5c-7.8,7.8-8.3,20.6-0.5,28.5
			c3.9,4,9.1,6,14.3,6c5.1,0,10.2-2,14.1-5.9L256,284.3c0,0,0,0,0.1,0l221.8,221.8c3.9,3.9,9,5.9,14.1,5.9s10.2-2,14.1-5.9
			c7.8-7.8,7.8-20.5,0-28.3L284.3,256C284.3,256,284.3,256,284.3,256z"/>
	</g>
</g>
</svg>
