<?xml version="1.0" encoding="utf-8"?>
<!-- Generator: Adobe Illustrator 25.1.0, SVG Export Plug-In . SVG Version: 6.00 Build 0)  -->
<svg version="1.1" id="Calque_1" xmlns="http://www.w3.org/2000/svg" xmlns:xlink="http://www.w3.org/1999/xlink" x="0px" y="0px"
	 viewBox="0 0 22.2 18.5" style="enable-background:new 0 0 22.2 18.5;" xml:space="preserve">
<style type="text/css">
	.st0{clip-path:url(#SVGID_2_);fill:#656564;}
</style>
<g>
	<defs>
		<rect id="SVGID_1_" width="22.2" height="18.5"/>
	</defs>
	<clipPath id="SVGID_2_">
		<use xlink:href="#SVGID_1_"  style="overflow:visible;"/>
	</clipPath>
	<path class="st0" d="M14,9.1l5.4-5.3c0.3-0.3,0.3-0.7,0-1c-0.2-0.3-0.6-0.3-0.9-0.1l-7.5,7.3L9.6,8.7c0,0,0,0,0,0
		c0,0-0.1-0.1-0.1-0.1L3.6,2.7C3.3,2.5,2.9,2.5,2.7,2.8c-0.2,0.3-0.2,0.7,0,1l5.5,5.4l-5.5,5.6c-0.2,0.3-0.3,0.7,0,1
		c0.1,0.1,0.3,0.2,0.5,0.2c0.2,0,0.3-0.1,0.4-0.2L9.2,10l1.5,1.5c0.1,0.1,0.3,0.2,0.4,0.2s0.3-0.1,0.4-0.2l1.5-1.5l5.5,5.7
		c0.1,0.1,0.3,0.2,0.4,0.2c0.2,0,0.3-0.1,0.4-0.2c0.2-0.3,0.2-0.7,0-1L14,9.1z M21,15.5c0,0.9-0.7,1.6-1.5,1.6H2.7
		c-0.8,0-1.5-0.7-1.5-1.6V3c0-0.9,0.7-1.6,1.5-1.6h16.8c0.8,0,1.5,0.7,1.5,1.6L21,15.5L21,15.5z M19.5,0H2.7C1.2,0,0,1.3,0,3v12.5
		c0,1.6,1.2,3,2.7,3h16.8c1.5,0,2.7-1.3,2.7-3V3C22.2,1.3,21,0,19.5,0"/>
</g>
</svg>
