<?xml version="1.0" encoding="utf-8"?>
<!-- Generator: Adobe Illustrator 25.1.0, SVG Export Plug-In . SVG Version: 6.00 Build 0)  -->
<svg version="1.1" id="Calque_1" xmlns="http://www.w3.org/2000/svg" xmlns:xlink="http://www.w3.org/1999/xlink" x="0px" y="0px"
	 viewBox="0 0 61.2 42.6" style="enable-background:new 0 0 61.2 42.6;" xml:space="preserve">
<style type="text/css">
	.st0{fill:#324951;}
</style>
<g>
	<path class="st0" d="M40.5,14.4c1.2,0,2.3,0,3.4,0h0.5V8.5c-0.6-0.1-1.3-0.2-1.9-0.2c-1.2-0.1-2.3-0.1-3.5-0.1
		c-1.8,0-3.5,0.4-4.9,1.5c-1.7,1.2-2.6,2.9-2.9,4.9c-0.1,0.8-0.2,1.7-0.2,2.5c0,1.3,0,2.6,0,3.9v0.5h-5.7v6.6h5.6v14.5h6.7V28.3h5.5
		c0.3-2.2,0.6-4.4,0.9-6.6h-1.2h-5.2c0,0,0.1-3.3,0.1-4.7C37.8,15.1,38.9,14.5,40.5,14.4z"/>
</g>
</svg>
