<?xml version="1.0" encoding="utf-8"?>
<!-- Generator: Adobe Illustrator 25.0.1, SVG Export Plug-In . SVG Version: 6.00 Build 0)  -->
<svg version="1.1" id="Calque_1" xmlns="http://www.w3.org/2000/svg" xmlns:xlink="http://www.w3.org/1999/xlink" x="0px" y="0px"
	 viewBox="0 0 29.4 134.7" style="enable-background:new 0 0 29.4 134.7;" xml:space="preserve">
<style type="text/css">
	.st0{fill:#FFFFFF;}
</style>
<g>
	<g>
		<path class="st0" d="M2.3,50c1.3,0,2.3,1,2.3,2.3s-1,2.3-2.3,2.3S0,53.6,0,52.3S1,50,2.3,50"/>
	</g>
	<g>
		<path class="st0" d="M10.8,85c0.7,0.8,1.7,1.4,2.9,1.5v-9.3c-1.2,0.2-2.1,0.7-2.9,1.5c-0.7,0.8-1.1,1.9-1.1,3.1
			C9.8,83.1,10.1,84.1,10.8,85 M16.3,73.7v12.8c1.2-0.2,2.2-0.8,2.9-1.8c0.7-0.9,1.1-2.1,1.1-3.5c0-1.8-0.6-3.3-1.8-4.4l2.4-2
			c0.9,0.7,1.5,1.7,2,2.8c0.4,1.1,0.7,2.4,0.7,3.8c0,1.8-0.4,3.4-1.1,4.7c-0.7,1.4-1.7,2.4-3,3.2c-1.3,0.8-2.7,1.1-4.3,1.1
			s-3-0.4-4.3-1.1c-1.3-0.7-2.3-1.7-3-3C7.2,85,6.8,83.6,6.8,82s0.4-3,1.1-4.3c0.7-1.3,1.7-2.2,3-2.9c1.3-0.7,2.7-1.1,4.4-1.1
			C15.4,73.6,15.8,73.6,16.3,73.7"/>
	</g>
	<g>
		<path class="st0" d="M22.9,68.8c-0.3,1.3-0.8,2.3-1.3,3l-2.9-1.5c0.5-0.7,0.9-1.6,1.2-2.6c0.3-1,0.4-2,0.4-3
			c0-2.3-0.6-3.4-1.8-3.4c-0.6,0-1,0.3-1.2,0.9s-0.4,1.5-0.6,2.8c-0.2,1.3-0.4,2.4-0.7,3.3c-0.3,0.8-0.7,1.6-1.4,2.2
			s-1.6,0.9-2.8,0.9c-1.5,0-2.8-0.6-3.7-1.9s-1.4-3-1.4-5.2c0-1.1,0.1-2.2,0.4-3.4c0.3-1.1,0.6-2,1-2.8l2.9,1.4
			c-0.8,1.4-1.2,2.9-1.2,4.7c0,1.1,0.2,2,0.5,2.6s0.8,0.9,1.3,0.9c0.6,0,1-0.3,1.3-0.9s0.5-1.6,0.7-2.9c0.2-1.3,0.4-2.4,0.7-3.2
			c0.3-0.8,0.7-1.6,1.3-2.2s1.5-0.9,2.7-0.9c1.5,0,2.8,0.7,3.7,2c0.9,1.3,1.4,3.1,1.4,5.4C23.4,66.2,23.2,67.5,22.9,68.8"/>
	</g>
</g>
<rect x="6.9" y="50.4" class="st0" width="16.3" height="3.8"/>
<g>
	<g>
		<path class="st0" d="M17.9,34.4c-0.9-0.9-2-1.4-3.4-1.4s-2.5,0.5-3.3,1.4c-0.9,0.9-1.3,2.1-1.3,3.6s0.4,2.7,1.3,3.6
			c0.9,0.9,2,1.4,3.3,1.4c1.4,0,2.5-0.5,3.4-1.4s1.3-2.1,1.3-3.6C19.2,36.5,18.8,35.3,17.9,34.4 M6.9,29.2h13.8
			c5.7,0,8.6,2.9,8.6,8.8c0,1.6-0.2,3.1-0.6,4.5s-1,2.6-1.7,3.5l-2.9-1.7c0.6-0.7,1.1-1.6,1.4-2.7c0.4-1.1,0.5-2.2,0.5-3.3
			c0-1.8-0.4-3.1-1.2-3.9c-0.8-0.8-2.1-1.3-3.7-1.3h-0.9c0.7,0.7,1.3,1.4,1.6,2.4c0.4,0.9,0.6,2,0.6,3.1c0,1.5-0.3,2.9-1,4.2
			c-0.7,1.3-1.6,2.2-2.8,3c-1.2,0.7-2.6,1.1-4.1,1.1s-2.9-0.4-4.1-1.1s-2.1-1.7-2.8-3s-1-2.7-1-4.2c0-1.2,0.2-2.3,0.6-3.2
			c0.4-1,1-1.8,1.8-2.4H6.9V29.2z"/>
	</g>
	<g>
		<path class="st0" d="M8.5,10c1.2-1.2,3-1.9,5.3-1.9h9.3v3.8h-8.9c-1.4,0-2.5,0.3-3.2,1s-1.1,1.6-1.1,2.9c0,1.4,0.4,2.5,1.3,3.3
			c0.8,0.8,2.1,1.2,3.7,1.2h8.2v3.8H6.9v-3.6H9c-0.8-0.6-1.3-1.4-1.7-2.4c-0.4-1-0.6-2-0.6-3.2C6.7,12.9,7.3,11.2,8.5,10"/>
	</g>
	<g>
		<path class="st0" d="M10.9,130.7V123c0-1.2,0.5-2.3,1.5-3.1c0.9-0.8,2.2-1.1,3.4-0.9c2,0.3,3.5,2.1,3.5,4.2v7.5H10.9z M25.2,130.7
			c-1.1,0-2-0.9-2-2V123c0-4.2-3.3-7.7-7.5-8.1c-2.3-0.2-4.4,0.6-6.1,2.2c-1.7,1.6-2.7,3.8-2.7,6.1v9.5c0,1.1,0.9,2,2,2H26
			c1.8,0,3.3-1.5,3.4-3.3v-0.7l0,0H25.2z"/>
	</g>
	<g>
		<path class="st0" d="M23.2,5.5V2.1c0-1-0.7-1.9-1.6-2.1c-1.3-0.2-2.4,0.7-2.4,2v3.5c0,0,0,0.1,0.1,0.1L23.2,5.5
			C23.1,5.6,23.2,5.6,23.2,5.5"/>
	</g>
	<g>
		<path class="st0" d="M10.2,102.6c0,1.5,0.5,2.8,1.4,3.8s2.1,1.5,3.6,1.5c1.4,0,2.6-0.5,3.5-1.5s1.4-2.2,1.4-3.8
			c0-1.5-0.5-2.8-1.4-3.8s-2.1-1.5-3.5-1.5c-1.5,0-2.6,0.5-3.6,1.5C10.6,99.8,10.2,101.1,10.2,102.6 M0.6,93.4h22.5v3.8h-2.3
			c0.8,0.7,1.5,1.5,1.9,2.6c0.4,1,0.6,2.2,0.6,3.4c0,1.6-0.3,3.1-1,4.4c-0.7,1.3-1.7,2.4-2.9,3.1c-1.3,0.8-2.7,1.1-4.3,1.1
			s-3.1-0.4-4.4-1.1c-1.3-0.8-2.2-1.8-2.9-3.1c-0.7-1.3-1-2.8-1-4.4c0-1.2,0.2-2.3,0.6-3.3s1-1.8,1.7-2.5H0.6V93.4z"/>
	</g>
</g>
</svg>
