<?xml version="1.0" encoding="utf-8"?>
<!-- Generator: Adobe Illustrator 25.0.1, SVG Export Plug-In . SVG Version: 6.00 Build 0)  -->
<svg version="1.1" id="Calque_1" xmlns="http://www.w3.org/2000/svg" xmlns:xlink="http://www.w3.org/1999/xlink" x="0px" y="0px"
	 viewBox="0 0 24.7 25.6" style="enable-background:new 0 0 24.7 25.6;" xml:space="preserve">
<style type="text/css">
	.st0{clip-path:url(#SVGID_2_);fill:#FFFFFF;}
</style>
<g>
	<defs>
		<rect id="SVGID_1_" width="24.7" height="25.6"/>
	</defs>
	<clipPath id="SVGID_2_">
		<use xlink:href="#SVGID_1_"  style="overflow:visible;"/>
	</clipPath>
	<path class="st0" d="M10.2,1.1c-5,0-9.1,4.1-9.1,9.1s4.1,9.1,9.1,9.1s9.1-4.1,9.1-9.1S15.2,1.1,10.2,1.1 M24.1,25.6
		c-0.2,0-0.3-0.1-0.4-0.2l-7.1-7.4L16,18.5c-1.7,1.2-3.7,1.8-5.8,1.8C4.6,20.3,0,15.8,0,10.2C0,4.6,4.6,0,10.2,0
		c5.6,0,10.2,4.6,10.2,10.2c0,2.4-0.8,4.7-2.4,6.5l-0.5,0.6l7.1,7.4c0.2,0.2,0.2,0.6,0,0.8C24.4,25.6,24.3,25.6,24.1,25.6"/>
</g>
</svg>
