<?xml version="1.0" encoding="utf-8"?>
<!-- Generator: Adobe Illustrator 25.0.1, SVG Export Plug-In . SVG Version: 6.00 Build 0)  -->
<svg version="1.1" id="Calque_1" xmlns="http://www.w3.org/2000/svg" xmlns:xlink="http://www.w3.org/1999/xlink" x="0px" y="0px"
	 viewBox="0 0 61.2 42.6" style="enable-background:new 0 0 61.2 42.6;" xml:space="preserve">
<style type="text/css">
	.st0{fill:#324951;}
</style>
<g>
	<path class="st0" d="M42.7,10.7c-2.2-0.3-10.4-0.3-12.7-0.1c-2.3,0.3-3.8,1.7-4.1,3.9c-0.4,2.4-0.3,11.3,0,13.1
		c0.3,1.9,1.4,3.1,3.2,3.7c1.9,0.5,11.3,0.4,13.3,0.2c2.3-0.2,3.8-1.6,4.1-3.9c0.4-2.3,0.3-10.6,0.1-12.7
		C46.3,12.6,44.9,11.1,42.7,10.7z M36.2,27.7c-3.7,0-6.6-3-6.6-6.6c0-3.7,3-6.6,6.6-6.6c3.7,0,6.6,3,6.6,6.6S39.9,27.7,36.2,27.7z
		 M43.1,15.8c-0.9,0-1.6-0.7-1.5-1.6c0-0.9,0.7-1.6,1.6-1.5c0.9,0,1.6,0.7,1.5,1.6C44.6,15.1,43.9,15.8,43.1,15.8z"/>
	<path class="st0" d="M39.5,0H0.8C0.3,0,0,0.4,0,0.8v41c0,0.4,0.3,0.8,0.8,0.8h37.4c10.8,0,20.8-7.1,22.7-17.4
		C63.3,11.7,52.8,0,39.5,0z M48.7,28.6c-0.8,2.9-2.7,4.7-5.7,5.2c-2.3,0.4-12.3,0.4-14.3-0.1C25.8,32.9,24,31,23.6,28
		c-0.4-2.2-0.5-12.3,0.1-14.5c0.8-2.9,2.7-4.6,5.6-5C31.8,8,39,8.1,42.1,8.3c1.8,0.1,3.4,0.7,4.7,1.9c1.3,1.2,1.9,2.7,2.1,4.4
		C49.1,16.7,49.3,26.3,48.7,28.6z"/>
	<path class="st0" d="M36.2,16.8c-2.4,0-4.3,1.9-4.3,4.3c0,2.4,1.9,4.3,4.3,4.3c2.4,0,4.3-1.9,4.3-4.3
		C40.5,18.8,38.6,16.8,36.2,16.8z"/>
</g>
</svg>
