<?xml version="1.0" encoding="utf-8"?>
<!-- Generator: Adobe Illustrator 25.0.1, SVG Export Plug-In . SVG Version: 6.00 Build 0)  -->
<svg version="1.1" id="Calque_1" xmlns="http://www.w3.org/2000/svg" xmlns:xlink="http://www.w3.org/1999/xlink" x="0px" y="0px"
	 viewBox="0 0 61.2 42.6" style="enable-background:new 0 0 61.2 42.6;" xml:space="preserve">
<style type="text/css">
	.st0{fill:#324951;}
</style>
<g>
	<path class="st0" d="M24.6,26.9c3.7-1.9,7.4-3.8,11.1-5.8c-3.7-1.9-7.4-3.8-11.1-5.8V26.9z M45.8,31.2c-0.4,0.9-1.1,1.5-1.9,1.9
		c-2.3,1.2-26,1.2-29,0.2c-1.4-0.4-2.3-1.3-2.8-2.7c-1.2-3.2-1.6-16.9,0.8-19.6c0.8-0.9,1.8-1.4,3-1.6C22,8.8,41.1,8.9,43.3,9.7
		c1.3,0.4,2.2,1.3,2.7,2.6C47.3,15.7,47.3,27.9,45.8,31.2 M39.5,0H0.8C0.3,0,0,0.4,0,0.8v41c0,0.4,0.3,0.8,0.8,0.8h37.4
		c10.8,0,20.8-7.1,22.7-17.4C63.3,11.7,52.8,0,39.5,0"/>
</g>
</svg>
