<?xml version="1.0" encoding="utf-8"?>
<!-- Generator: Adobe Illustrator 25.0.1, SVG Export Plug-In . SVG Version: 6.00 Build 0)  -->
<svg version="1.1" id="Calque_1" xmlns="http://www.w3.org/2000/svg" xmlns:xlink="http://www.w3.org/1999/xlink" x="0px" y="0px"
	 viewBox="0 0 61.2 42.6" style="enable-background:new 0 0 61.2 42.6;" xml:space="preserve">
<style type="text/css">
	.st0{fill:#324951;}
</style>
<g>
	<path class="st0" d="M39.5,0H0.8C0.3,0,0,0.4,0,0.8v41c0,0.4,0.3,0.8,0.8,0.8h30.1V28.1h-5.6v-6.6H31v-0.5c0-1.3,0-2.6,0-3.9
		c0-0.8,0.1-1.7,0.2-2.5c0.3-2,1.2-3.7,2.9-4.9c1.4-1.1,3.1-1.5,4.9-1.5c1.2,0,2.3,0,3.5,0.1c0.6,0,1.3,0.1,1.9,0.2v5.9h-0.5
		c-1.1,0-2.2,0-3.4,0c-1.6,0.1-2.7,0.7-2.8,2.6c0,1.4-0.1,4.7-0.1,4.7h5.2h1.2c-0.3,2.2-0.6,4.4-0.9,6.6h-5.5v14.4h0.5
		c10.8,0,20.8-7.1,22.7-17.4C63.3,11.7,52.8,0,39.5,0"/>
</g>
</svg>
