<?xml version="1.0" encoding="utf-8"?>
<!-- Generator: Adobe Illustrator 25.0.1, SVG Export Plug-In . SVG Version: 6.00 Build 0)  -->
<svg version="1.1" id="Calque_1" xmlns="http://www.w3.org/2000/svg" xmlns:xlink="http://www.w3.org/1999/xlink" x="0px" y="0px"
	 viewBox="0 0 61.2 42.6" style="enable-background:new 0 0 61.2 42.6;" xml:space="preserve">
<style type="text/css">
	.st0{fill:#324951;}
</style>
<g>
	<path class="st0" d="M48.5,25.8c-2.9,3.6-7.5,3.8-9.7,1.6l-0.5-0.6c0,0.1,0,0.1-0.1,0.2c-1,4-1.1,4.9-2.2,6.8
		c-0.5,0.9-1.1,1.7-1.7,2.5c-0.1,0.1-0.1,0.2-0.3,0.2c-0.2,0-0.2-0.2-0.2-0.3c-0.2-1.2-0.3-2.4-0.2-3.7c0.1-1.6,0.3-2.2,2.3-10.9
		c0-0.1,0-0.2-0.1-0.4c-0.5-1.3-0.6-2.7-0.2-4.1c0.9-3,4.3-3.2,4.9-0.8c0.4,1.5-0.6,3.5-1.3,6.4c-0.6,2.4,2.2,4.2,4.7,2.4
		c2.2-1.6,3.1-5.5,3-8.3c-0.3-5.5-6.4-6.7-10.2-4.9c-4.4,2-5.4,7.5-3.4,10c0.2,0.3,0.4,0.5,0.4,0.8c-0.2,0.5-0.2,1-0.4,1.5
		c-0.1,0.3-0.4,0.5-0.8,0.3c-0.7-0.3-1.3-0.8-1.8-1.4c-1.7-2.1-2.2-6.2,0.1-9.8c2.5-3.9,7.1-5.5,11.3-5c5,0.6,8.2,4,8.8,7.9
		C51.2,18.4,51,22.7,48.5,25.8 M39.5,0H0.8C0.4,0,0,0.4,0,0.8v41c0,0.4,0.3,0.8,0.8,0.8h37.4c10.8,0,20.8-7.1,22.7-17.4
		C63.3,11.7,52.8,0,39.5,0"/>
</g>
</svg>
